<svg width="29" height="24" viewBox="0 0 29 24" fill="none" xmlns="http://www.w3.org/2000/svg">
  <path
    d="M8.87305 23.0313H0.795898V0.397552H8.90515C12.2039 0.397552 14.8906 1.4087 16.9652 3.43101C19.0399 5.45332 20.0775 8.22016 20.0779 11.7315C20.0779 15.2229 19.0349 17.9792 16.9488 20.0006C14.8628 22.022 12.1708 23.0323 8.87305 23.0313ZM5.20162 18.9446H8.71321C10.6927 18.9446 12.3211 18.3274 13.5984 17.0928C14.8758 15.8583 15.5133 14.0703 15.511 11.7288C15.511 9.38819 14.8735 7.59493 13.5984 6.34903C12.3234 5.10314 10.7057 4.48064 8.74532 4.48155H5.20162V18.9446Z"
    fill="white"></path>
  <path
    d="M28.7962 0.397552L27.7716 16.1379H24.6746L23.65 0.397552H28.7962ZM24.454 22.5552C24.2159 22.3231 24.028 22.0447 23.9017 21.7372C23.7754 21.4296 23.7135 21.0994 23.7197 20.767C23.7144 20.4324 23.7767 20.1001 23.9029 19.7902C24.0291 19.4802 24.2165 19.1989 24.454 18.963C24.6786 18.7229 24.9507 18.5321 25.2531 18.4027C25.5554 18.2734 25.8813 18.2083 26.2101 18.2117C26.8869 18.2135 27.5355 18.4831 28.014 18.9617C28.4926 19.4403 28.7623 20.0888 28.7641 20.7656C28.7696 21.0995 28.7057 21.4309 28.5763 21.7387C28.447 22.0466 28.255 22.3242 28.0127 22.5539C27.7768 22.7912 27.4955 22.9786 27.1855 23.1047C26.8756 23.2309 26.5434 23.2933 26.2088 23.2882C25.8819 23.2915 25.5578 23.228 25.2564 23.1015C24.955 22.975 24.6826 22.7881 24.456 22.5525L24.454 22.5552Z"
    fill="#F9E05B"></path>
</svg>